<svg xmlns="http://www.w3.org/2000/svg" viewBox="0 0 32 32">
  <rect width="32" height="32" rx="7" fill="#0f2b4a"/>
  <path d="M12.5 7 L12.5 12.5 L6 12.5 Q4.5 12.5 4.5 14 L4.5 18 Q4.5 19.5 6 19.5 L12.5 19.5 L12.5 25 Q12.5 26.5 14 26.5 L18 26.5 Q19.5 26.5 19.5 25 L19.5 19.5 L26 19.5 Q27.5 19.5 27.5 18 L27.5 14 Q27.5 12.5 26 12.5 L19.5 12.5 L19.5 7 Q19.5 5.5 18 5.5 L14 5.5 Q12.5 5.5 12.5 7 Z" fill="none" stroke="#1aada8" stroke-width="1.5" stroke-linejoin="round"/>
  <path d="M16 3 Q16 1.5 17.2 1.5 Q18.5 1.5 18.5 3 Q18.5 4.2 17.2 4.5 L16 5.5" fill="none" stroke="#6dd4cc" stroke-width="1.2" stroke-linecap="round"/>
  <path d="M16 5.5 Q16 6.5 10 10.5 Q7.5 12 6 12.5" fill="none" stroke="#6dd4cc" stroke-width="1.2" stroke-linecap="round"/>
  <path d="M16 5.5 Q16 6.5 22 10.5 Q24.5 12 26 12.5" fill="none" stroke="#6dd4cc" stroke-width="1.2" stroke-linecap="round"/>
  <polyline points="6,17 9,17 10.5,13.5 12,20 13.5,15.5 15,17 17,17 18.5,14 20,19 21.5,17 26,17" fill="none" stroke="#6dd4cc" stroke-width="1" stroke-linecap="round" stroke-linejoin="round"/>
  <path d="M16 10 Q16 8.2 14.5 8.2 Q13 8.2 13 9.8 Q13 11.2 16 13.5 Q19 11.2 19 9.8 Q19 8.2 17.5 8.2 Q16 8.2 16 10Z" fill="#6dd4cc"/>
</svg>
