<svg xmlns="http://www.w3.org/2000/svg" viewBox="0 0 100 110" fill="none">
  <!-- Medical cross outline -->
  <path d="M34 20 L34 38 L16 38 Q12 38 12 42 L12 58 Q12 62 16 62 L34 62 L34 80 Q34 84 38 84 L62 84 Q66 84 66 80 L66 62 L84 62 Q88 62 88 58 L88 42 Q88 38 84 38 L66 38 L66 20 Q66 16 62 16 L38 16 Q34 16 34 20 Z" stroke="#1aada8" stroke-width="4" stroke-linejoin="round"/>

  <!-- Heartbeat line inside cross horizontal arm -->
  <polyline points="18,52 26,52 29,43 33,61 37,47 41,52 46,52 51,44 55,60 59,52 64,52 82,52" stroke="#1aada8" stroke-width="2.8" stroke-linecap="round" stroke-linejoin="round"/>

  <!-- Hanger hook -->
  <path d="M50 4 Q50 1 53 1 Q56 1 56 4 Q56 7 53 8 L50 10" stroke="#1aada8" stroke-width="3" stroke-linecap="round"/>
  <!-- Hanger left shoulder -->
  <path d="M50 10 Q48 15 24 32 Q17 36 13 39" stroke="#1aada8" stroke-width="3" stroke-linecap="round"/>
  <!-- Hanger right shoulder -->
  <path d="M50 10 Q52 15 76 32 Q83 36 87 39" stroke="#1aada8" stroke-width="3" stroke-linecap="round"/>
  <!-- Hanger neck notch -->
  <path d="M44 16 Q47 19 50 19 Q53 19 56 16" stroke="#1aada8" stroke-width="2.5" stroke-linecap="round"/>

  <!-- Heart -->
  <path d="M50 27 Q50 23 46.5 23 Q43 23 43 27 Q43 30 50 35 Q57 30 57 27 Q57 23 53.5 23 Q50 23 50 27 Z" fill="#1aada8"/>
</svg>
